<?xml version="1.0" standalone="no"?>
<!DOCTYPE svg PUBLIC "-//W3C//DTD SVG 20010904//EN"
 "http://www.w3.org/TR/2001/REC-SVG-20010904/DTD/svg10.dtd">
<svg version="1.0" xmlns="http://www.w3.org/2000/svg"
 width="300.000000pt" height="23.000000pt" viewBox="0 0 300.000000 23.000000"
 preserveAspectRatio="xMidYMid meet">
<metadata>
Created by potrace 1.10, written by Peter Selinger 2001-2011
</metadata>
<g transform="translate(0.000000,23.000000) scale(0.100000,-0.100000)"
fill="#000000" stroke="none">
<path d="M122 205 c-57 -28 -89 -51 -80 -60 3 -4 25 7 49 24 23 17 44 29 47
27 9 -10 -94 -116 -113 -116 -14 0 -16 -3 -8 -11 9 -9 8 -18 -4 -36 -23 -34
-9 -39 15 -5 12 16 37 33 60 40 47 14 115 62 138 97 34 52 -28 75 -104 40z
m94 -6 c9 -15 -52 -76 -99 -101 -22 -10 -41 -18 -43 -16 -2 2 20 32 49 65 50
59 78 75 93 52z"/>
<path d="M1778 137 c-72 -73 -74 -74 -145 -85 -92 -15 -94 -15 -86 4 5 14 2
14 -28 -1 -20 -10 -29 -12 -21 -4 20 21 14 34 -8 14 -11 -10 -18 -21 -15 -25
6 -10 130 -11 174 -1 32 7 38 6 34 -5 -8 -22 22 -27 79 -14 28 7 84 12 122 11
39 -1 87 -2 106 -2 19 1 87 1 150 1 63 0 148 5 189 10 51 7 78 7 86 0 7 -6 26
-11 41 -12 43 -1 152 10 164 17 5 3 10 1 10 -5 0 -7 31 -10 94 -9 52 1 98 -1
104 -5 13 -8 154 15 167 27 9 9 -7 8 -130 -10 -38 -6 -39 -5 -25 12 14 17 13
18 -5 11 -61 -25 -203 -37 -190 -17 9 16 -13 23 -35 11 -14 -8 -20 -8 -20 0 0
8 -6 8 -20 0 -30 -16 -133 -23 -150 -10 -11 9 -12 13 -2 17 6 2 12 9 12 14 0
14 -26 11 -39 -5 -7 -8 -36 -17 -64 -20 -136 -14 -157 -15 -152 -7 10 18 -43
20 -112 5 -69 -15 -72 -15 -91 4 -20 20 -20 20 24 63 24 24 44 48 44 53 0 6
-28 -18 -63 -52 -61 -60 -65 -62 -132 -71 -39 -5 -85 -14 -104 -20 -19 -6 -37
-8 -40 -6 -3 3 35 46 84 95 49 50 84 90 77 90 -6 0 -44 -33 -84 -73z"/>
<path d="M1335 140 c-22 -27 -46 -49 -53 -50 -7 0 -11 -4 -8 -9 3 -4 -3 -16
-14 -26 -11 -10 -20 -25 -20 -34 0 -11 10 -5 28 17 l28 34 68 -31 c77 -35 76
-34 76 -22 0 6 -27 20 -60 32 -33 12 -60 23 -60 24 0 2 32 21 70 44 39 23 68
46 65 52 -4 5 -33 -9 -66 -32 -33 -22 -62 -39 -65 -37 -2 3 12 20 31 38 34 33
43 50 28 50 -5 0 -26 -22 -48 -50z"/>
<path d="M830 150 c-25 -22 -45 -30 -72 -30 -21 0 -38 -5 -38 -11 0 -7 12 -8
33 -4 l32 6 -31 -29 c-51 -48 -193 -57 -179 -11 4 13 2 19 -9 19 -9 0 -16 -4
-16 -10 0 -5 -17 -13 -37 -19 -50 -12 -184 -20 -178 -11 8 14 -65 22 -81 9 -7
-6 -12 -15 -9 -19 7 -11 152 -11 237 0 40 5 77 5 83 1 18 -14 64 -19 108 -11
24 5 47 4 53 -1 7 -6 40 -5 85 1 40 6 85 8 99 5 14 -3 43 1 63 10 33 14 37 14
37 0 0 -10 10 -15 28 -15 47 0 102 12 102 22 0 5 -13 7 -30 4 -16 -3 -43 -9
-60 -12 -25 -5 -29 -3 -24 10 7 19 -26 22 -58 5 -42 -22 -25 -1 43 56 39 33
66 61 60 63 -6 2 -42 -23 -79 -56 -63 -56 -72 -60 -139 -71 -39 -6 -82 -11
-94 -11 -22 0 -22 1 6 30 22 23 37 30 67 30 22 0 37 4 34 9 -3 5 -16 7 -29 4
-19 -4 -18 -1 11 25 54 48 39 60 -18 12z"/>
</g>
</svg>
